<?xml version="1.0" encoding="UTF-8"?>
<svg id="Layer_1" data-name="Layer 1" xmlns="http://www.w3.org/2000/svg" viewBox="0 0 3526.33 353.24">
  <defs>
    <style>
      .cls-1 {
        fill: #101011;
        stroke-width: 0px;
      }
    </style>
  </defs>
  <path class="cls-1" d="m355.2,27.06h-38.89c-1.43,0-2.78.43-4.06,1.28-1.28.85-2.21,1.71-2.78,2.56l-115.37,175.62L80.02,30.91c-.57-1.13-1.5-2.06-2.78-2.78-1.28-.71-2.64-1.07-4.06-1.07H29.6c-1.14,0-2,.36-2.56,1.07-.58.71-.86,1.64-.86,2.78,0,.29.07.64.21,1.07.14.43.49,1.64,1.07,3.63,2.84,6.84,4.91,13.25,6.19,19.23,1.28,5.98,1.92,12.25,1.92,18.8v205.54c0,2.56-.36,5.7-1.07,9.4-.72,3.71-2.07,9.4-4.06,17.09-1.43,5.41-2.35,9.26-2.78,11.54-.43,2.28-.64,3.99-.64,5.13s.35,2.07,1.07,2.78c.71.71,1.78,1.07,3.21,1.07h55.55c1.13,0,2.14-.35,2.99-1.07.86-.71,1.28-1.64,1.28-2.78,0-.86-.15-2.14-.43-3.85-.29-1.71-1.14-4.84-2.56-9.4-2.28-8.83-3.78-15.31-4.49-19.44-.72-4.13-1.07-7.62-1.07-10.47V116.8l98.71,151.69c1.13,1.43,2.06,2.42,2.78,2.99.71.57,1.64.85,2.78.85h11.11c1.13,0,2.06-.28,2.78-.85.71-.57,1.64-1.56,2.78-2.99l98.71-151.27v161.95c0,2.85-.36,6.34-1.07,10.47-.71,4.13-2.21,10.61-4.49,19.44-1.43,4.56-2.28,7.69-2.56,9.4-.29,1.71-.43,2.99-.43,3.85,0,1.14.43,2.07,1.28,2.78.86.71,1.85,1.07,2.99,1.07h55.55c1.42,0,2.49-.35,3.21-1.07.71-.71,1.07-1.64,1.07-2.78s-.21-2.85-.64-5.13c-.43-2.28-1.36-6.12-2.78-11.54-2-7.69-3.35-13.39-4.06-17.09-.72-3.7-1.07-6.84-1.07-9.4V77.06c0-7.69.71-15.17,2.14-22.43,1.42-7.26,3.42-13.89,5.98-19.87.57-1.13.92-2.06,1.07-2.78.14-.71.21-1.35.21-1.92,0-1.14-.29-1.92-.85-2.35-.58-.43-1.43-.64-2.56-.64Z"/>
  <path class="cls-1" d="m676.11,312.5c-.29-.28-1.5-2.28-3.63-5.98-2.14-3.7-3.78-6.69-4.91-8.97-1.43-3.13-2.71-5.91-3.85-8.33-1.14-2.42-2.56-5.62-4.27-9.62l-83.75-202.11c-2-4.84-3.92-9.9-5.77-15.17-1.86-5.27-4.06-12.03-6.62-20.3-1.14-3.99-2-6.62-2.57-7.91-.57-1.28-1-2.35-1.28-3.21-.85-1.13-1.78-2.06-2.78-2.78-1-.71-2.07-1.07-3.21-1.07h-41.45c-1.14,0-2.14.36-2.99,1.07-.85.71-1.28,1.78-1.28,3.21,0,.85.28,2.21.86,4.06.57,1.86.99,3.06,1.28,3.63.85,3.14,1.35,5.27,1.5,6.41.14,1.14.21,2.28.21,3.42,0,2.28-.36,4.85-1.07,7.69-.71,2.85-1.64,5.55-2.78,8.12l-86.32,214.93c-1.43,3.14-3.14,6.7-5.13,10.68-2,3.99-4.42,8.27-7.26,12.82-5.13,9.12-8.05,14.39-8.76,15.81-.72,1.43-1.07,2.56-1.07,3.42,0,1.14.43,2.07,1.28,2.78.86.71,1.85,1.07,2.99,1.07h44.44c2.85,0,5.13-.28,6.84-.85,1.71-.57,2.84-1.56,3.42-2.99.28-.86.64-2.57,1.07-5.13.43-2.56,1.21-7.12,2.35-13.67,1.71-9.11,2.92-15.02,3.63-17.73.71-2.7,1.35-4.77,1.92-6.2l9.4-24.36h120.93l9.83,24.36c1.13,2.57,2.14,5.7,2.99,9.4.85,3.7,1.71,8.55,2.56,14.53.86,5.42,1.56,9.69,2.14,12.82.57,3.14.99,5.13,1.28,5.98.57,1.14,1.42,2.07,2.56,2.78,1.14.71,2.28,1.07,3.42,1.07h54.27c1.14,0,2.06-.35,2.78-1.07s1.07-1.5,1.07-2.35-.29-1.99-.86-3.42c-.57-1.42-1.71-3.7-3.42-6.84Zm-183.32-99.99l43.16-113.24,44.87,113.24h-88.03Z"/>
  <path class="cls-1" d="m898.31,27.06h-53.84c-1.71,0-3.06.29-4.06.85-1,.58-1.78,1.43-2.35,2.56-.29.58-.72,2-1.28,4.27-.58,2.28-1,3.99-1.28,5.13-1.14,4.27-2.21,7.69-3.21,10.26-1,2.56-2.07,4.85-3.21,6.84l-52.99,100.42-52.13-100.42c-.86-1.71-1.71-3.63-2.57-5.77-.85-2.14-1.86-4.91-2.99-8.33-.57-1.99-1.14-4.41-1.71-7.26-.58-2.84-1-4.55-1.28-5.13-.57-1.13-1.36-1.99-2.35-2.56-1-.57-2.35-.85-4.06-.85h-56.4c-1.43,0-2.5.29-3.21.85-.71.58-1.07,1.57-1.07,2.99,0,.57.28,1.43.85,2.56.57,1.14,2.99,4.56,7.26,10.26.86,1.14,2.35,3.49,4.49,7.05,2.14,3.56,4.91,8.19,8.33,13.89l81.19,140.16v74.35c0,2.56-.29,5.55-.86,8.97-.57,3.42-1.57,7.55-2.99,12.39,0,.58-.79,3.85-2.35,9.83-1.57,5.98-2.35,9.97-2.35,11.96,0,1.14.35,2.07,1.07,2.78.71.71,1.78,1.07,3.21,1.07h57.69c1.13,0,2.14-.35,2.99-1.07.85-.71,1.28-1.64,1.28-2.78,0-.86-.21-2.42-.64-4.7-.43-2.28-1.92-8.12-4.49-17.52-1.14-5.13-2-9.33-2.56-12.61-.57-3.27-.85-6.05-.85-8.33v-74.35l74.35-131.18c3.13-5.98,6.19-11.18,9.19-15.6,2.99-4.41,6.48-9.04,10.47-13.89,3.42-3.99,5.7-6.9,6.84-8.76,1.13-1.85,1.71-3.35,1.71-4.49,0-1.42-.29-2.42-.86-2.99-.57-.57-1.57-.85-2.99-.85Z"/>
  <path class="cls-1" d="m1185.88,300.11c-7.12-7.69-12.32-13.39-15.6-17.09-3.28-3.7-5.92-7.12-7.91-10.26l-84.18-128.19,71.36-74.35c3.13-3.13,6.69-6.41,10.68-9.83,3.99-3.42,10.4-8.4,19.23-14.96,5.98-4.55,9.9-7.76,11.75-9.61s2.78-3.49,2.78-4.91c0-1.13-.36-2.06-1.07-2.78-.71-.71-1.64-1.07-2.78-1.07h-58.97c-1.71,0-3.42.64-5.13,1.92-1.71,1.28-3.99,3.92-6.84,7.91-4.85,7.69-7.98,12.54-9.4,14.53-1.43,2-2.99,3.85-4.7,5.55l-104.69,111.95v-94.86c0-2.56.28-5.77.86-9.62.57-3.85,1.85-9.75,3.85-17.73,1.13-5.98,1.85-9.83,2.14-11.54.28-1.71.43-3.13.43-4.27s-.36-2.06-1.07-2.78c-.72-.71-1.78-1.07-3.21-1.07h-55.12c-1.14,0-2.14.36-2.99,1.07-.85.71-1.28,1.64-1.28,2.78,0,.57.07,1.36.21,2.35.14,1,.49,2.78,1.07,5.34.57,2.28.92,4.06,1.07,5.34.14,1.28.35,2.5.64,3.63,1.42,6.27,2.49,11.54,3.21,15.81.71,4.27,1.07,7.84,1.07,10.68v205.11c0,2.56-.29,5.55-.85,8.97-.58,3.42-1.71,8.27-3.42,14.53-2,7.69-3.21,12.6-3.63,14.74-.43,2.14-.64,3.78-.64,4.91s.35,2.07,1.07,2.78c.71.71,1.78,1.07,3.21,1.07h57.69c1.14,0,2.14-.35,2.99-1.07.86-.71,1.28-1.64,1.28-2.78s-.64-4.27-1.92-9.4c-1.28-5.13-2.21-8.69-2.78-10.68-2-9.68-3.14-15.52-3.42-17.52-.29-1.99-.43-3.85-.43-5.55v-53.41l44.87-47,69.22,108.96c2.56,3.99,4.77,8.05,6.62,12.18,1.85,4.13,3.06,7.9,3.63,11.32,1.42,5.7,2.78,9.62,4.06,11.75,1.28,2.14,2.92,3.21,4.91,3.21h65.81c1.42,0,2.42-.28,2.99-.85.57-.57.85-1.71.85-3.42,0-1.42-1.07-3.56-3.21-6.41-2.14-2.84-6.91-7.97-14.31-15.38Z"/>
  <path class="cls-1" d="m1440.98,276.61c-1.14,0-2.78.21-4.91.64s-5.06,1.22-8.76,2.35c-5.98,1.43-10.68,2.42-14.1,2.99-3.42.58-6.41.86-8.97.86h-100.42v-93.58h59.4c2.84,0,5.84.21,8.97.64,3.13.43,6.84,1.07,11.11,1.92,4.84,1.43,8.76,2.5,11.75,3.21,2.99.71,4.91,1.07,5.77,1.07,1.71,0,3.63-5.84,5.77-17.52,2.14-11.68,3.21-20.79,3.21-27.35,0-1.42-.43-2.57-1.28-3.42s-2-1.28-3.42-1.28h-101.27v-77.34h79.91c5.13,0,10.18.29,15.17.85,4.98.58,10.04,1.57,15.17,2.99,1.99.58,5.55,1.5,10.68,2.78,5.13,1.28,8.55,1.92,10.26,1.92,1.13,0,2.06-.35,2.78-1.07.71-.71,1.07-1.78,1.07-3.21l-4.27-45.3c0-1.42-.43-2.49-1.28-3.2-.86-.71-2-1.07-3.42-1.07h-1.92c-.71,0-2.07.15-4.06.43-2.28.29-4.13.5-5.55.64-1.43.15-2.71.21-3.85.21-3.14.29-7.41.58-12.82.86-5.41.29-11.54.43-18.37.43h-130.76c-1.43,0-2.5.36-3.21,1.07-.72.71-1.07,1.78-1.07,3.21,0,.57.07,1.36.21,2.35.14,1,.49,2.92,1.07,5.77.57,2,.92,3.63,1.07,4.91.14,1.28.35,2.5.64,3.63,1.13,5.42,1.99,10.19,2.56,14.32.57,4.13.85,8.05.85,11.75v209.38c0,3.14-.36,6.48-1.07,10.04-.72,3.57-1.64,7.2-2.78,10.9-.29,1.14-.64,2.35-1.07,3.63-.43,1.28-.93,3.21-1.5,5.77-.86,2.85-1.43,4.7-1.71,5.56-.29.85-.43,1.57-.43,2.14,0,1.43.49,2.56,1.5,3.42.99.85,2.2,1.28,3.63,1.28h156.82c2.84,0,5.41.07,7.69.21,2.28.14,4.41.49,6.41,1.07,3.99.57,6.55.86,7.69.86h3.42c2.56,0,5.19-6.05,7.9-18.16,2.71-12.1,4.06-21.72,4.06-28.84,0-1.42-.36-2.56-1.07-3.42-.71-.86-1.78-1.28-3.2-1.28Z"/>
  <path class="cls-1" d="m1736.25,312.93c-7.12-7.4-13.18-14.31-18.16-20.72-4.99-6.41-9.33-12.89-13.03-19.44l-44.44-73.5c17.09-6.84,30.55-17.66,40.38-32.48,9.83-14.81,14.74-31.76,14.74-50.85,0-27.06-8.27-48.64-24.78-64.74-16.53-16.09-37.89-24.14-64.1-24.14h-118.36c-1.14,0-2.14.36-2.99,1.07-.85.71-1.28,1.64-1.28,2.78s.57,4.06,1.71,8.76c1.13,4.7,1.71,7.34,1.71,7.91,1.71,8.27,2.78,14.1,3.21,17.52.43,3.42.64,6.41.64,8.97v205.11c0,2.28-.29,4.99-.85,8.12-.58,3.14-1.71,8.27-3.42,15.38-1.43,5.7-2.5,10.11-3.21,13.25-.71,3.14-1.07,5.13-1.07,5.98,0,1.14.43,2.14,1.28,2.99.86.85,1.85,1.28,2.99,1.28h57.69c1.42,0,2.49-.35,3.21-1.07s1.07-1.78,1.07-3.21c0-.57-.15-1.42-.43-2.56-.29-1.14-.86-3.27-1.71-6.41-.58-2.56-1.07-4.63-1.5-6.2-.43-1.56-.79-3.06-1.07-4.49-2-9.11-3.14-14.81-3.42-17.09-.29-2.28-.43-4.27-.43-5.98v-72.64h50.42l44.44,78.62c2.84,4.85,5.34,10.26,7.48,16.24,2.14,5.98,3.63,11.54,4.49,16.66.28,2.85.99,4.91,2.14,6.2,1.13,1.28,2.56,1.92,4.27,1.92h64.52c1.42,0,2.49-.35,3.21-1.07s1.07-1.64,1.07-2.78c0-.86-.57-2.14-1.71-3.85-1.14-1.71-2.71-3.56-4.7-5.55Zm-85.89-161.74c-9.4,8.41-22.08,12.6-38.03,12.6h-51.7v-94.01h52.56c17.37,0,30.26,3.85,38.67,11.54,8.4,7.69,12.6,19.52,12.6,35.47,0,14.53-4.7,26-14.1,34.4Z"/>
  <path class="cls-1" d="m2110.57,276.61c-1.14,0-2.78.21-4.91.64s-5.06,1.22-8.76,2.35c-5.98,1.43-10.68,2.42-14.1,2.99-3.42.58-6.41.86-8.97.86h-100.42v-93.58h59.4c2.84,0,5.84.21,8.97.64,3.13.43,6.84,1.07,11.11,1.92,4.84,1.43,8.76,2.5,11.75,3.21,2.99.71,4.91,1.07,5.77,1.07,1.71,0,3.63-5.84,5.77-17.52,2.14-11.68,3.21-20.79,3.21-27.35,0-1.42-.43-2.57-1.28-3.42s-2-1.28-3.42-1.28h-101.27v-77.34h79.91c5.13,0,10.18.29,15.17.85,4.98.58,10.04,1.57,15.17,2.99,1.99.58,5.55,1.5,10.68,2.78,5.13,1.28,8.55,1.92,10.26,1.92,1.13,0,2.06-.35,2.78-1.07.71-.71,1.07-1.78,1.07-3.21l-4.27-45.3c0-1.42-.43-2.49-1.28-3.2-.86-.71-2-1.07-3.42-1.07h-1.92c-.71,0-2.07.15-4.06.43-2.28.29-4.13.5-5.55.64-1.43.15-2.71.21-3.85.21-3.14.29-7.41.58-12.82.86-5.41.29-11.54.43-18.37.43h-130.76c-1.43,0-2.5.36-3.21,1.07-.72.71-1.07,1.78-1.07,3.21,0,.57.07,1.36.21,2.35.14,1,.49,2.92,1.07,5.77.57,2,.92,3.63,1.07,4.91.14,1.28.35,2.5.64,3.63,1.13,5.42,1.99,10.19,2.56,14.32.57,4.13.85,8.05.85,11.75v209.38c0,3.14-.36,6.48-1.07,10.04-.72,3.57-1.64,7.2-2.78,10.9-.29,1.14-.64,2.35-1.07,3.63-.43,1.28-.93,3.21-1.5,5.77-.86,2.85-1.43,4.7-1.71,5.56-.29.85-.43,1.57-.43,2.14,0,1.43.49,2.56,1.5,3.42.99.85,2.2,1.28,3.63,1.28h156.82c2.84,0,5.41.07,7.69.21,2.28.14,4.41.49,6.41,1.07,3.99.57,6.55.86,7.69.86h3.42c2.56,0,5.19-6.05,7.9-18.16,2.71-12.1,4.06-21.72,4.06-28.84,0-1.42-.36-2.56-1.07-3.42-.71-.86-1.78-1.28-3.2-1.28Z"/>
  <path class="cls-1" d="m2437.24,28.13c-1-.71-2.07-1.07-3.21-1.07h-50.85c-1.14,0-2.21.36-3.21,1.07-1,.71-1.92,1.64-2.78,2.78-.57,1.43-1.07,3.06-1.5,4.91-.43,1.86-.79,4.21-1.07,7.05-.58,6.56-1.36,12.54-2.35,17.95-1,5.41-2.07,9.83-3.21,13.25l-73.5,201.26-70.08-201.26c-.85-2.56-1.64-5.41-2.35-8.55-.72-3.13-1.92-10.68-3.63-22.65-.29-2.84-.64-5.41-1.07-7.69-.43-2.28-.93-3.99-1.5-5.13-.57-.86-1.36-1.56-2.35-2.14-1-.57-2.21-.85-3.63-.85h-59.82c-1.14,0-2.14.36-2.99,1.07-.85.71-1.28,1.78-1.28,3.21,0,.57.64,2.07,1.92,4.49,1.28,2.42,3.06,5.77,5.34,10.04,3.13,5.41,5.91,10.54,8.33,15.38,2.42,4.85,4.34,9.12,5.77,12.82l96.57,246.13c.85,2,1.92,3.49,3.21,4.49,1.28,1,2.78,1.5,4.49,1.5h44.44c1.71,0,3.2-.49,4.49-1.5,1.28-.99,2.2-2.49,2.78-4.49l94.01-246.13c1.42-3.99,2.99-7.62,4.7-10.9,1.71-3.27,3.85-7.33,6.41-12.18,2.56-4.84,4.77-9.11,6.62-12.82,1.85-3.7,2.78-6.12,2.78-7.26s-.5-2.06-1.5-2.78Z"/>
  <path class="cls-1" d="m2676.32,276.61c-1.14,0-2.78.21-4.91.64s-5.06,1.22-8.76,2.35c-5.98,1.43-10.68,2.42-14.1,2.99-3.42.58-6.41.86-8.97.86h-100.42v-93.58h59.4c2.84,0,5.84.21,8.97.64,3.13.43,6.84,1.07,11.11,1.92,4.84,1.43,8.76,2.5,11.75,3.21,2.99.71,4.91,1.07,5.77,1.07,1.71,0,3.63-5.84,5.77-17.52,2.14-11.68,3.21-20.79,3.21-27.35,0-1.42-.43-2.57-1.28-3.42s-2-1.28-3.42-1.28h-101.27v-77.34h79.91c5.13,0,10.18.29,15.17.85,4.98.58,10.04,1.57,15.17,2.99,1.99.58,5.55,1.5,10.68,2.78,5.13,1.28,8.55,1.92,10.26,1.92,1.13,0,2.06-.35,2.78-1.07.71-.71,1.07-1.78,1.07-3.21l-4.27-45.3c0-1.42-.43-2.49-1.28-3.2-.86-.71-2-1.07-3.42-1.07h-1.92c-.71,0-2.07.15-4.06.43-2.28.29-4.13.5-5.55.64-1.43.15-2.71.21-3.85.21-3.14.29-7.41.58-12.82.86-5.41.29-11.54.43-18.37.43h-130.76c-1.43,0-2.5.36-3.21,1.07-.72.71-1.07,1.78-1.07,3.21,0,.57.07,1.36.21,2.35.14,1,.49,2.92,1.07,5.77.57,2,.92,3.63,1.07,4.91.14,1.28.35,2.5.64,3.63,1.13,5.42,1.99,10.19,2.56,14.32.57,4.13.85,8.05.85,11.75v209.38c0,3.14-.36,6.48-1.07,10.04-.72,3.57-1.64,7.2-2.78,10.9-.29,1.14-.64,2.35-1.07,3.63-.43,1.28-.93,3.21-1.5,5.77-.86,2.85-1.43,4.7-1.71,5.56-.29.85-.43,1.57-.43,2.14,0,1.43.49,2.56,1.5,3.42.99.85,2.2,1.28,3.63,1.28h156.82c2.84,0,5.41.07,7.69.21,2.28.14,4.41.49,6.41,1.07,3.99.57,6.55.86,7.69.86h3.42c2.56,0,5.19-6.05,7.9-18.16,2.71-12.1,4.06-21.72,4.06-28.84,0-1.42-.36-2.56-1.07-3.42-.71-.86-1.78-1.28-3.2-1.28Z"/>
  <path class="cls-1" d="m2999.36,27.06h-55.12c-1.14,0-2.14.36-2.99,1.07-.85.71-1.28,1.64-1.28,2.78s.28,2.85.85,5.13c.57,2.28,1.56,6.13,2.99,11.54,1.71,7.12,2.99,12.89,3.85,17.31.85,4.42,1.28,7.48,1.28,9.19v180.75l-151.69-223.91c-.85-1.42-1.86-2.42-2.99-2.99-1.14-.57-2.42-.85-3.85-.85h-48.71c-1.14,0-2,.29-2.57.85-.57.58-.85,1.43-.85,2.56,0,.86.14,2,.43,3.42.28,1.43.85,3.7,1.71,6.84,3.7,13.96,5.84,22.94,6.41,26.92.57,3.99.86,8.27.86,12.82v198.7c0,2.28-.21,4.91-.64,7.9s-1.36,7.34-2.78,13.03c-2.28,8.27-3.71,13.67-4.27,16.24-.58,2.56-.86,4.56-.86,5.98,0,1.14.35,2.07,1.07,2.78.71.71,1.78,1.07,3.21,1.07h55.55c1.13,0,2.14-.35,2.99-1.07.85-.71,1.28-1.64,1.28-2.78,0-.86-.43-3.06-1.28-6.62-.85-3.56-2.14-8.61-3.85-15.17-1.43-6.26-2.35-10.9-2.78-13.89-.43-2.99-.64-5.48-.64-7.48V109.96l145.71,210.66c1.42,2.28,2.84,3.78,4.27,4.49,1.42.71,3.27,1.07,5.55,1.07h41.02c1.42,0,2.49-.35,3.21-1.07s1.07-1.92,1.07-3.63V74.07c0-3.13.43-7.05,1.28-11.75.85-4.7,1.99-9.62,3.42-14.74,1.71-6.55,2.71-10.68,2.99-12.39.28-1.71.43-3.13.43-4.27s-.36-2.06-1.07-2.78c-.72-.71-1.78-1.07-3.21-1.07Z"/>
  <path class="cls-1" d="m3268.98,28.34c-.29-1.42-.79-2.49-1.5-3.21-.71-.71-1.78-1.07-3.21-1.07-1.14,0-3.35.29-6.62.85-3.28.58-5.34.85-6.2.85-6.84.29-12.33.58-16.45.86-4.13.29-7.05.43-8.76.43h-132.47c-1.14,0-3.7-.14-7.69-.43-3.99-.28-9.4-.57-16.24-.86-.57,0-2.78-.28-6.62-.85-3.85-.57-6.34-.85-7.48-.85-1.43,0-2.5.36-3.21,1.07s-1.22,1.78-1.5,3.21l-4.27,45.72c-.29,1.43-.07,2.5.64,3.21.71.71,1.77,1.07,3.2,1.07,1.71,0,4.91-.57,9.62-1.71,4.7-1.13,7.62-1.85,8.76-2.14,5.13-1.42,9.83-2.57,14.1-3.42,4.27-.85,7.83-1.28,10.68-1.28h41.45v209.38c0,2.56-.29,5.63-.85,9.19-.58,3.57-1.57,7.77-2.99,12.61-.29,1.14-1.14,4.49-2.56,10.04-1.43,5.55-2.14,9.33-2.14,11.32,0,1.14.35,2.07,1.07,2.78.71.71,1.78,1.07,3.21,1.07h57.69c1.14,0,2.14-.35,2.99-1.07.86-.71,1.28-1.64,1.28-2.78,0-1.42-.71-4.84-2.14-10.26-1.43-5.41-2.28-8.83-2.56-10.26-1.14-4.84-2.07-9.19-2.78-13.03-.71-3.85-1.07-7.05-1.07-9.61V69.79h41.88c2.56,0,5.69.36,9.4,1.07,3.7.72,8.55,1.78,14.53,3.21,8.55,2.28,13.6,3.56,15.17,3.85,1.56.29,2.92.43,4.06.43,1.42,0,2.49-.35,3.21-1.07.71-.71.92-1.78.64-3.21l-4.27-45.72Z"/>
  <path class="cls-1" d="m3484.34,196.06c-10.54-13.25-31.77-26.99-63.67-41.24-2-.85-7.98-3.42-17.95-7.69-9.97-4.27-17.67-7.83-23.07-10.68-8.83-4.84-15.24-10.04-19.23-15.6-3.99-5.55-5.98-11.75-5.98-18.59,0-11.96,4.06-21.43,12.18-28.42,8.12-6.98,19.58-10.47,34.4-10.47,10.26,0,20.15,1.86,29.7,5.55,9.54,3.71,21.15,11.26,34.83,22.65,3.99,3.42,6.62,5.49,7.91,6.2,1.28.71,2.35,1.07,3.2,1.07,1.14,0,2.14-.35,2.99-1.07.86-.71,1.42-1.78,1.71-3.21.86-4.84,1.56-10.61,2.14-17.31.57-6.69.85-12.61.85-17.73,0-6.55-.07-12.1-.21-16.67-.15-4.55-.5-8.4-1.07-11.54-.29-1.42-.71-2.49-1.28-3.21-.58-.71-1.57-1.07-2.99-1.07-.85,0-1.78.15-2.78.43-1,.29-2.78.72-5.34,1.28-2.28.86-4.56,1.43-6.84,1.71-2.28.29-4.7.43-7.26.43s-6.48-.85-11.75-2.56c-5.27-1.71-8.48-2.71-9.62-2.99-5.41-1.71-10.83-2.92-16.24-3.63-5.41-.71-11.11-1.07-17.09-1.07-29.06,0-52.77,7.69-71.15,23.07-18.37,15.38-27.56,34.33-27.56,56.83,0,20.23,5.05,36.61,15.17,49.14,10.11,12.54,29.98,25.07,59.61,37.6.85.29,7.33,2.92,19.44,7.9,12.1,4.99,21,9.19,26.71,12.61,8.83,5.13,15.17,10.9,19.01,17.31,3.85,6.41,5.77,14.17,5.77,23.29,0,13.96-4.35,24.36-13.03,31.19-8.69,6.84-21.73,10.26-39.1,10.26-14.53,0-28.28-2.49-41.23-7.48-12.97-4.98-26.57-13.6-40.81-25.85-2.57-1.99-4.35-3.35-5.34-4.06-1-.71-1.78-1.07-2.35-1.07s-1,.15-1.28.43-.58.72-.86,1.28c-1.14,2.85-2.14,7.05-2.99,12.61-.85,5.55-1.28,10.61-1.28,15.17,0,7.12.64,13.67,1.92,19.65,1.28,5.98,2.78,9.55,4.49,10.68,13.1,7.12,27.13,12.47,42.09,16.02,14.96,3.56,31.12,5.34,48.5,5.34,31.33,0,56.26-7.76,74.78-23.29,18.52-15.52,27.78-36.96,27.78-64.31,0-19.37-5.28-35.68-15.81-48.93Z"/>
</svg>